<svg xmlns="http://www.w3.org/2000/svg" xmlns:xlink="http://www.w3.org/1999/xlink" width="500" zoomAndPan="magnify" viewBox="0 0 375 374.999991" height="500" preserveAspectRatio="xMidYMid meet" version="1.0"><defs><g/><clipPath id="id1"><path d="M 91 152.007812 L 159.71875 152.007812 L 159.71875 170 L 91 170 Z M 91 152.007812 " clip-rule="nonzero"/></clipPath><clipPath id="id2"><path d="M 109 172 L 159.71875 172 L 159.71875 189 L 109 189 Z M 109 172 " clip-rule="nonzero"/></clipPath><clipPath id="id3"><path d="M 76.46875 184 L 159.71875 184 L 159.71875 203 L 76.46875 203 Z M 76.46875 184 " clip-rule="nonzero"/></clipPath><clipPath id="id4"><path d="M 95 205 L 159.71875 205 L 159.71875 223.257812 L 95 223.257812 Z M 95 205 " clip-rule="nonzero"/></clipPath></defs><g clip-path="url(#id1)"><path fill="#000000" d="M 99.1875 167.628906 C 103.101562 167.628906 106.324219 164.707031 106.84375 160.910156 L 120.074219 160.910156 L 125.730469 169.113281 C 125.949219 169.417969 126.253906 169.546875 126.601562 169.546875 L 158.675781 169.546875 C 159.242188 169.546875 159.71875 169.070312 159.71875 168.5 C 159.71875 167.933594 159.242188 167.453125 158.675781 167.453125 L 127.125 167.453125 L 121.46875 159.253906 C 121.25 158.945312 120.945312 158.816406 120.597656 158.816406 L 106.800781 158.816406 C 106.277344 155.019531 103.058594 152.097656 99.140625 152.097656 C 94.878906 152.097656 91.394531 155.585938 91.394531 159.863281 C 91.394531 164.136719 94.921875 167.628906 99.1875 167.628906 Z M 99.1875 154.234375 C 102.277344 154.234375 104.800781 156.765625 104.800781 159.863281 C 104.800781 162.960938 102.277344 165.492188 99.1875 165.492188 C 96.097656 165.492188 93.570312 162.960938 93.570312 159.863281 C 93.570312 156.765625 96.050781 154.234375 99.1875 154.234375 Z M 99.1875 154.234375 " fill-opacity="1" fill-rule="nonzero"/></g><g clip-path="url(#id2)"><path fill="#000000" d="M 158.675781 179.582031 L 125.296875 179.582031 C 124.773438 175.785156 121.554688 172.863281 117.636719 172.863281 C 113.371094 172.863281 109.890625 176.355469 109.890625 180.628906 C 109.890625 184.90625 113.371094 188.394531 117.636719 188.394531 C 121.554688 188.394531 124.773438 185.472656 125.296875 181.675781 L 158.675781 181.675781 C 159.242188 181.675781 159.71875 181.195312 159.71875 180.628906 C 159.71875 180.0625 159.242188 179.582031 158.675781 179.582031 Z M 117.636719 186.300781 C 114.546875 186.300781 112.023438 183.769531 112.023438 180.671875 C 112.023438 177.574219 114.546875 175 117.636719 175 C 120.726562 175 123.25 177.53125 123.25 180.628906 C 123.25 183.769531 120.726562 186.300781 117.636719 186.300781 Z M 117.636719 186.300781 " fill-opacity="1" fill-rule="nonzero"/></g><g clip-path="url(#id3)"><path fill="#000000" d="M 158.675781 193.019531 L 129.5625 193.019531 C 129.214844 193.019531 128.863281 193.195312 128.648438 193.5 L 124.558594 200.042969 L 106.628906 200.042969 L 102.1875 191.753906 C 102.015625 191.40625 101.667969 191.1875 101.273438 191.1875 L 91.875 191.1875 C 91.351562 187.390625 88.132812 184.46875 84.214844 184.46875 C 79.949219 184.46875 76.46875 187.960938 76.46875 192.234375 C 76.46875 196.511719 79.949219 200 84.214844 200 C 88.132812 200 91.351562 197.078125 91.875 193.28125 L 100.621094 193.28125 L 105.0625 201.570312 C 105.234375 201.921875 105.582031 202.136719 105.976562 202.136719 L 125.121094 202.136719 C 125.472656 202.136719 125.820312 201.964844 126.035156 201.660156 L 130.128906 195.113281 L 158.632812 195.113281 C 159.195312 195.113281 159.675781 194.632812 159.675781 194.066406 C 159.71875 193.5 159.242188 193.019531 158.675781 193.019531 Z M 84.214844 197.949219 C 81.125 197.949219 78.601562 195.417969 78.601562 192.320312 C 78.601562 189.222656 81.125 186.695312 84.214844 186.695312 C 87.304688 186.695312 89.828125 189.222656 89.828125 192.320312 C 89.871094 195.417969 87.347656 197.949219 84.214844 197.949219 Z M 84.214844 197.949219 " fill-opacity="1" fill-rule="nonzero"/></g><g clip-path="url(#id4)"><path fill="#000000" d="M 158.675781 205.367188 L 141.878906 205.367188 C 141.484375 205.367188 141.136719 205.585938 140.964844 205.890625 L 136.003906 214.355469 L 110.675781 214.355469 C 110.152344 210.558594 106.933594 207.636719 103.015625 207.636719 C 98.75 207.636719 95.269531 211.125 95.269531 215.402344 C 95.269531 219.675781 98.75 223.167969 103.015625 223.167969 C 106.933594 223.167969 110.152344 220.242188 110.675781 216.449219 L 136.613281 216.449219 C 137.003906 216.449219 137.351562 216.230469 137.523438 215.925781 L 142.484375 207.460938 L 158.675781 207.460938 C 159.242188 207.460938 159.71875 206.980469 159.71875 206.414062 C 159.71875 205.847656 159.242188 205.367188 158.675781 205.367188 Z M 103.015625 221.074219 C 99.925781 221.074219 97.402344 218.542969 97.402344 215.445312 C 97.402344 212.347656 99.925781 209.816406 103.015625 209.816406 C 106.105469 209.816406 108.628906 212.347656 108.628906 215.445312 C 108.671875 218.542969 106.148438 221.074219 103.015625 221.074219 Z M 103.015625 221.074219 " fill-opacity="1" fill-rule="nonzero"/></g><g fill="#000000" fill-opacity="1"><g transform="translate(167.619003, 192.260668)"><g><path d="M 20.320312 -14.976562 L 20.320312 -16.453125 C 20.320312 -18.164062 19.980469 -19.480469 19.292969 -20.347656 C 18.609375 -21.242188 17.453125 -21.691406 15.847656 -21.691406 L 4.210938 -21.691406 L 4.210938 -21.664062 C 3.449219 -21.609375 2.789062 -21.191406 2.394531 -20.558594 C 2.289062 -20.347656 2.183594 -20.109375 2.132812 -19.898438 L 2.105469 -1.921875 C 2.160156 -1.632812 2.265625 -1.34375 2.394531 -1.105469 C 2.816406 -0.394531 3.578125 0.0273438 4.394531 0.0273438 L 16.242188 0.0273438 C 17.03125 0.0273438 17.6875 -0.105469 18.214844 -0.367188 C 18.769531 -0.632812 19.214844 -1 19.53125 -1.5 C 19.875 -1.972656 20.085938 -2.554688 20.242188 -3.238281 C 20.375 -3.894531 20.453125 -4.660156 20.453125 -5.476562 L 20.453125 -7.238281 C 20.453125 -8.976562 19.953125 -10.292969 19.003906 -11.160156 C 19.898438 -12.054688 20.320312 -13.34375 20.320312 -14.976562 Z M 5.976562 -4.027344 L 5.976562 -17.636719 C 5.976562 -17.742188 6 -17.792969 6.027344 -17.792969 L 15.160156 -17.792969 C 15.660156 -17.792969 16.03125 -17.664062 16.242188 -17.425781 C 16.453125 -17.1875 16.558594 -16.769531 16.558594 -16.214844 L 16.558594 -14.398438 C 16.558594 -13.898438 16.453125 -13.503906 16.214844 -13.242188 C 16.003906 -13.003906 15.558594 -12.871094 14.871094 -12.871094 L 9.765625 -12.871094 C 9.292969 -12.871094 8.898438 -12.476562 8.898438 -12.003906 L 8.898438 -9.84375 C 8.898438 -9.34375 9.292969 -8.976562 9.765625 -8.976562 L 14.871094 -8.976562 C 15.558594 -8.976562 16.003906 -8.816406 16.242188 -8.554688 C 16.453125 -8.292969 16.582031 -7.871094 16.582031 -7.292969 L 16.582031 -5.5 C 16.582031 -4.894531 16.476562 -4.476562 16.265625 -4.238281 C 16.058594 -4 15.6875 -3.894531 15.160156 -3.894531 L 6 -3.894531 C 6 -3.894531 5.976562 -3.921875 5.976562 -4.027344 Z M 5.976562 -4.027344 "/></g></g></g><g fill="#000000" fill-opacity="1"><g transform="translate(191.492978, 192.260668)"><g><path d="M 21.585938 -21.691406 L 18.664062 -21.691406 C 18.425781 -21.691406 18.109375 -21.609375 17.898438 -21.214844 L 12.109375 -10.660156 L 6.371094 -21.191406 C 6.160156 -21.609375 5.84375 -21.691406 5.605469 -21.691406 L 2.605469 -21.691406 C 2.367188 -21.691406 2.183594 -21.558594 2.132812 -21.320312 C 2.078125 -21.136719 2.105469 -20.925781 2.210938 -20.742188 L 10.109375 -6.660156 L 10.109375 -0.894531 C 10.109375 -0.078125 10.632812 0 10.84375 0 L 13.265625 0 C 13.476562 0 14.003906 -0.078125 14.003906 -0.894531 L 14.003906 -6.660156 L 21.980469 -20.742188 C 22.085938 -20.925781 22.109375 -21.136719 22.058594 -21.347656 C 21.980469 -21.558594 21.796875 -21.691406 21.585938 -21.691406 Z M 21.585938 -21.691406 "/></g></g></g><g fill="#000000" fill-opacity="1"><g transform="translate(216.998909, 192.260668)"><g><path d="M 20.292969 -21.691406 L 2.871094 -21.691406 C 2.632812 -21.691406 2.105469 -21.609375 2.105469 -20.796875 L 2.105469 -18.742188 C 2.105469 -17.875 2.632812 -17.792969 2.871094 -17.792969 L 9.632812 -17.792969 L 9.632812 -0.894531 C 9.632812 -0.078125 10.160156 0 10.371094 0 L 12.792969 0 C 13.03125 0 13.53125 -0.078125 13.53125 -0.894531 L 13.53125 -17.792969 L 20.292969 -17.792969 C 20.53125 -17.792969 21.058594 -17.875 21.058594 -18.742188 L 21.058594 -20.796875 C 21.058594 -21.609375 20.53125 -21.691406 20.292969 -21.691406 Z M 20.292969 -21.691406 "/></g></g></g><g fill="#000000" fill-opacity="1"><g transform="translate(241.478281, 192.260668)"><g><path d="M 17.925781 -4.710938 L 8.660156 -4.710938 C 8.105469 -4.710938 7.660156 -4.789062 7.292969 -4.894531 C 6.949219 -5.027344 6.710938 -5.210938 6.5 -5.476562 C 6.292969 -5.765625 6.132812 -6.160156 6.054688 -6.660156 C 6.027344 -6.792969 6.027344 -6.976562 6 -7.105469 C 6 -7.105469 6.027344 -9.003906 6.054688 -9.003906 L 17.820312 -9.003906 C 18.03125 -9.003906 18.558594 -9.109375 18.558594 -9.921875 L 18.558594 -12.003906 C 18.558594 -12.820312 18.03125 -12.898438 17.820312 -12.898438 L 4.238281 -12.871094 C 3.472656 -12.820312 2.816406 -12.425781 2.449219 -11.765625 C 2.316406 -11.554688 2.210938 -11.34375 2.160156 -11.109375 L 2.105469 -7.792969 L 2.105469 -7.660156 C 2.132812 -6.421875 2.265625 -5.371094 2.449219 -4.5 C 2.683594 -3.449219 3.078125 -2.578125 3.578125 -1.921875 C 4.105469 -1.238281 4.789062 -0.761719 5.632812 -0.472656 C 6.449219 -0.15625 7.421875 -0.0273438 8.582031 -0.0273438 L 17.925781 -0.0273438 C 18.164062 -0.0273438 18.6875 -0.105469 18.6875 -0.921875 L 18.6875 -3.816406 C 18.6875 -4.632812 18.164062 -4.710938 17.925781 -4.710938 Z M 17.953125 -21.742188 L 2.816406 -21.742188 C 2.605469 -21.742188 2.105469 -21.636719 2.105469 -20.796875 L 2.105469 -18.742188 C 2.105469 -17.925781 2.605469 -17.847656 2.816406 -17.847656 L 17.953125 -17.820312 C 18.164062 -17.820312 18.6875 -17.925781 18.6875 -18.742188 L 18.6875 -20.820312 C 18.6875 -21.636719 18.164062 -21.742188 17.953125 -21.742188 Z M 17.953125 -21.742188 "/></g></g></g><g fill="#000000" fill-opacity="1"><g transform="translate(167.619003, 209.833039)"><g><path d="M 11.105469 -8.183594 L 11.105469 -8.988281 C 11.105469 -9.925781 10.917969 -10.644531 10.542969 -11.117188 C 10.167969 -11.605469 9.535156 -11.851562 8.660156 -11.851562 L 2.300781 -11.851562 L 2.300781 -11.835938 C 1.882812 -11.808594 1.523438 -11.578125 1.308594 -11.234375 C 1.25 -11.117188 1.195312 -10.988281 1.164062 -10.875 L 1.152344 -1.050781 C 1.179688 -0.890625 1.238281 -0.734375 1.308594 -0.605469 C 1.539062 -0.214844 1.957031 0.015625 2.402344 0.015625 L 8.875 0.015625 C 9.304688 0.015625 9.664062 -0.0585938 9.953125 -0.203125 C 10.253906 -0.34375 10.5 -0.546875 10.671875 -0.820312 C 10.859375 -1.078125 10.972656 -1.394531 11.058594 -1.769531 C 11.132812 -2.128906 11.175781 -2.546875 11.175781 -2.992188 L 11.175781 -3.957031 C 11.175781 -4.90625 10.902344 -5.625 10.382812 -6.097656 C 10.875 -6.585938 11.105469 -7.292969 11.105469 -8.183594 Z M 3.265625 -2.199219 L 3.265625 -9.636719 C 3.265625 -9.695312 3.28125 -9.722656 3.292969 -9.722656 L 8.285156 -9.722656 C 8.558594 -9.722656 8.757812 -9.652344 8.875 -9.523438 C 8.988281 -9.390625 9.046875 -9.160156 9.046875 -8.859375 L 9.046875 -7.867188 C 9.046875 -7.59375 8.988281 -7.378906 8.859375 -7.234375 C 8.746094 -7.105469 8.5 -7.035156 8.125 -7.035156 L 5.335938 -7.035156 C 5.078125 -7.035156 4.863281 -6.816406 4.863281 -6.558594 L 4.863281 -5.378906 C 4.863281 -5.105469 5.078125 -4.90625 5.335938 -4.90625 L 8.125 -4.90625 C 8.5 -4.90625 8.746094 -4.816406 8.875 -4.675781 C 8.988281 -4.53125 9.0625 -4.300781 9.0625 -3.984375 L 9.0625 -3.007812 C 9.0625 -2.675781 9.003906 -2.445312 8.890625 -2.316406 C 8.773438 -2.1875 8.570312 -2.128906 8.285156 -2.128906 L 3.28125 -2.128906 C 3.28125 -2.128906 3.265625 -2.144531 3.265625 -2.199219 Z M 3.265625 -2.199219 "/></g></g></g><g fill="#000000" fill-opacity="1"><g transform="translate(180.664463, 209.833039)"><g><path d="M 9.792969 -2.574219 L 4.730469 -2.574219 C 4.429688 -2.574219 4.183594 -2.617188 3.984375 -2.675781 C 3.796875 -2.746094 3.667969 -2.847656 3.550781 -2.992188 C 3.4375 -3.148438 3.351562 -3.367188 3.308594 -3.640625 C 3.292969 -3.710938 3.292969 -3.8125 3.28125 -3.882812 C 3.28125 -3.882812 3.292969 -4.917969 3.308594 -4.917969 L 9.738281 -4.917969 C 9.851562 -4.917969 10.140625 -4.976562 10.140625 -5.421875 L 10.140625 -6.558594 C 10.140625 -7.003906 9.851562 -7.046875 9.738281 -7.046875 L 2.316406 -7.035156 C 1.898438 -7.003906 1.539062 -6.789062 1.335938 -6.429688 C 1.265625 -6.3125 1.207031 -6.199219 1.179688 -6.070312 L 1.152344 -4.257812 L 1.152344 -4.183594 C 1.164062 -3.507812 1.238281 -2.933594 1.335938 -2.460938 C 1.46875 -1.882812 1.683594 -1.410156 1.957031 -1.050781 C 2.242188 -0.675781 2.617188 -0.417969 3.078125 -0.257812 C 3.523438 -0.0859375 4.054688 -0.015625 4.6875 -0.015625 L 9.792969 -0.015625 C 9.925781 -0.015625 10.210938 -0.0585938 10.210938 -0.503906 L 10.210938 -2.085938 C 10.210938 -2.53125 9.925781 -2.574219 9.792969 -2.574219 Z M 9.808594 -11.878906 L 1.539062 -11.878906 C 1.425781 -11.878906 1.152344 -11.824219 1.152344 -11.363281 L 1.152344 -10.242188 C 1.152344 -9.792969 1.425781 -9.75 1.539062 -9.75 L 9.808594 -9.738281 C 9.925781 -9.738281 10.210938 -9.792969 10.210938 -10.242188 L 10.210938 -11.375 C 10.210938 -11.824219 9.925781 -11.878906 9.808594 -11.878906 Z M 9.808594 -11.878906 "/></g></g></g><g fill="#000000" fill-opacity="1"><g transform="translate(192.746262, 209.833039)"><g><path d="M 11.332031 -11.851562 L 10.054688 -11.851562 C 9.925781 -11.851562 9.652344 -11.808594 9.652344 -11.347656 L 9.652344 -2.703125 C 9.652344 -2.691406 9.652344 -2.691406 9.652344 -2.675781 L 9.578125 -2.675781 C 9.566406 -2.675781 9.550781 -2.675781 9.535156 -2.71875 L 4.992188 -10.800781 C 4.875 -11.015625 4.773438 -11.191406 4.675781 -11.320312 C 4.574219 -11.464844 4.472656 -11.578125 4.371094 -11.648438 C 4.257812 -11.738281 4.128906 -11.792969 3.96875 -11.824219 C 3.824219 -11.835938 3.652344 -11.851562 3.464844 -11.851562 L 2.386719 -11.851562 C 1.96875 -11.851562 1.652344 -11.707031 1.453125 -11.449219 C 1.25 -11.175781 1.152344 -10.699219 1.152344 -9.996094 L 1.152344 -0.488281 C 1.152344 -0.0429688 1.4375 0.015625 1.566406 0.015625 L 2.847656 0.015625 C 2.976562 0.015625 3.25 -0.0429688 3.25 -0.488281 L 3.25 -9.132812 C 3.25 -9.148438 3.25 -9.160156 3.25 -9.160156 L 3.324219 -9.160156 C 3.324219 -9.160156 3.335938 -9.160156 3.367188 -9.117188 L 7.925781 -1.035156 C 8.039062 -0.804688 8.15625 -0.632812 8.253906 -0.503906 C 8.355469 -0.359375 8.457031 -0.257812 8.570312 -0.1875 C 8.6875 -0.101562 8.816406 -0.0585938 8.960938 -0.0273438 C 9.089844 0 9.25 0.015625 9.449219 0.015625 L 10.5 0.015625 C 10.917969 0.015625 11.234375 -0.128906 11.433594 -0.402344 C 11.636719 -0.660156 11.738281 -1.136719 11.738281 -1.839844 L 11.738281 -11.347656 C 11.738281 -11.808594 11.449219 -11.851562 11.332031 -11.851562 Z M 11.332031 -11.851562 "/></g></g></g><g fill="#000000" fill-opacity="1"><g transform="translate(206.352661, 209.833039)"><g><path d="M 10.886719 -11.851562 L 4.703125 -11.851562 C 4.070312 -11.851562 3.523438 -11.765625 3.078125 -11.605469 C 2.632812 -11.433594 2.242188 -11.160156 1.96875 -10.800781 C 1.683594 -10.425781 1.46875 -9.96875 1.335938 -9.390625 C 1.207031 -8.832031 1.152344 -8.140625 1.152344 -7.351562 L 1.152344 -4.5 C 1.152344 -3.695312 1.207031 -3.007812 1.335938 -2.429688 C 1.46875 -1.871094 1.683594 -1.394531 1.96875 -1.019531 C 2.257812 -0.660156 2.632812 -0.386719 3.078125 -0.230469 C 3.523438 -0.0703125 4.070312 0.015625 4.703125 0.015625 L 9.621094 0.015625 C 10.15625 0.015625 10.570312 -0.203125 10.859375 -0.617188 C 11.132812 -1.019531 11.277344 -1.695312 11.277344 -2.660156 L 11.277344 -6.515625 C 11.277344 -7.0625 10.960938 -7.148438 10.773438 -7.148438 L 5.679688 -7.148438 C 5.566406 -7.148438 5.277344 -7.089844 5.277344 -6.628906 L 5.277344 -5.539062 C 5.277344 -5.0625 5.566406 -5.019531 5.679688 -5.019531 L 9.261719 -5.019531 C 9.261719 -5.019531 9.277344 -3.007812 9.277344 -3.007812 C 9.277344 -2.558594 9.207031 -2.375 9.148438 -2.285156 C 9.074219 -2.171875 8.960938 -2.128906 8.800781 -2.128906 L 4.773438 -2.128906 C 4.472656 -2.128906 4.214844 -2.15625 4.027344 -2.230469 C 3.839844 -2.285156 3.710938 -2.386719 3.597656 -2.546875 C 3.496094 -2.691406 3.410156 -2.90625 3.367188 -3.179688 C 3.308594 -3.464844 3.28125 -3.824219 3.28125 -4.257812 L 3.28125 -7.59375 C 3.28125 -8.027344 3.308594 -8.386719 3.367188 -8.671875 C 3.410156 -8.933594 3.496094 -9.148438 3.597656 -9.304688 C 3.710938 -9.449219 3.839844 -9.550781 4.027344 -9.621094 C 4.214844 -9.679688 4.472656 -9.722656 4.773438 -9.722656 L 10.886719 -9.722656 C 11.003906 -9.722656 11.289062 -9.765625 11.289062 -10.226562 L 11.289062 -11.347656 C 11.289062 -11.792969 11.003906 -11.851562 10.886719 -11.851562 Z M 10.886719 -11.851562 "/></g></g></g><g fill="#000000" fill-opacity="1"><g transform="translate(219.513176, 209.833039)"><g><path d="M 8.859375 -10.515625 C 8.832031 -10.585938 8.800781 -10.671875 8.773438 -10.730469 C 8.542969 -11.476562 7.851562 -12.011719 7.0625 -12.011719 C 6.703125 -12.011719 6.355469 -11.910156 6.070312 -11.707031 C 5.984375 -11.664062 5.910156 -11.605469 5.855469 -11.5625 C 5.636719 -11.375 5.421875 -11.03125 5.222656 -10.515625 L 1.207031 -0.546875 C 1.164062 -0.417969 1.152344 -0.289062 1.179688 -0.203125 C 1.195312 -0.113281 1.265625 0.015625 1.496094 0.015625 L 3.078125 0.015625 C 3.265625 0.015625 3.410156 -0.101562 3.480469 -0.289062 L 4.300781 -2.34375 L 7.449219 -2.34375 C 7.609375 -2.34375 7.753906 -2.417969 7.824219 -2.546875 C 7.910156 -2.660156 7.925781 -2.820312 7.882812 -2.964844 L 7.363281 -4.242188 C 7.292969 -4.414062 7.132812 -4.53125 6.945312 -4.53125 L 5.164062 -4.53125 L 7.003906 -9.191406 C 7.019531 -9.21875 7.035156 -9.234375 7.035156 -9.234375 L 7.089844 -9.234375 C 7.089844 -9.234375 7.089844 -9.234375 7.105469 -9.207031 L 10.671875 -0.300781 C 10.742188 -0.101562 10.886719 0.015625 11.089844 0.015625 L 12.628906 0.015625 C 12.859375 0.015625 12.914062 -0.128906 12.945312 -0.203125 C 12.972656 -0.289062 12.960938 -0.417969 12.902344 -0.546875 Z M 8.859375 -10.515625 "/></g></g></g><g fill="#000000" fill-opacity="1"><g transform="translate(234.356527, 209.833039)"><g><path d="M 9.449219 -2.128906 L 4.773438 -2.128906 C 4.472656 -2.128906 4.230469 -2.15625 4.027344 -2.230469 C 3.855469 -2.285156 3.710938 -2.386719 3.609375 -2.546875 C 3.496094 -2.703125 3.410156 -2.917969 3.367188 -3.179688 C 3.308594 -3.464844 3.292969 -3.824219 3.292969 -4.257812 L 3.292969 -11.347656 C 3.292969 -11.808594 3.007812 -11.851562 2.890625 -11.851562 L 1.566406 -11.851562 C 1.4375 -11.851562 1.152344 -11.808594 1.152344 -11.347656 L 1.152344 -4.5 C 1.152344 -3.695312 1.222656 -3.007812 1.351562 -2.445312 C 1.480469 -1.871094 1.683594 -1.394531 1.96875 -1.035156 C 2.257812 -0.660156 2.632812 -0.386719 3.09375 -0.230469 C 3.523438 -0.0703125 4.070312 0.015625 4.703125 0.015625 L 9.449219 0.015625 C 9.578125 0.015625 9.851562 -0.0429688 9.851562 -0.488281 L 9.851562 -1.625 C 9.851562 -2.070312 9.578125 -2.128906 9.449219 -2.128906 Z M 9.449219 -2.128906 "/></g></g></g></svg>